Format                                   : Matroska
Format version                           : Version 1
File size                                : 7.94 GiB
Duration                                 : 1h 39mn
Overall bit rate                         : 11.5 Mbps
Encoded date                             : UTC 2009-04-28 10:07:49
Writing application                      : mkvmerge v2.1.0 ('Another Place To Fall') built on Aug 19 2007 13:40:07
Writing library                          : libebml v0.7.7 + libmatroska v0.8.1

Video
ID                                       : 1
Format                                   : AVC
Format/Info                              : Advanced Video Codec
Format profile                           : High@L4.1
Format settings, CABAC                   : Yes
Format settings, ReFrames                : 4 frames
Codec ID                                 : V_MPEG4/ISO/AVC
Duration                                 : 1h 39mn
Bit rate                                 : 10.8 Mbps
Width                                    : 1 920 pixels
Height                                   : 1 080 pixels
Display aspect ratio                     : 16:9
Frame rate mode                          : Constant
Frame rate                               : 23.976 fps
Color space                              : YUV
Chroma subsampling                       : 4:2:0
Bit depth                                : 8 bits
Scan type                                : Progressive
Bits/(Pixel*Frame)                       : 0.217
Stream size                              : 7.34 GiB (92%)
Writing library                          : x264 core 67 r1139 1024283

Audio
ID                                       : 2
Format                                   : AC-3
Format/Info                              : Audio Coding 3
Mode extension                           : CM (complete main)
Format settings, Endianness              : Big
Codec ID                                 : A_AC3
Duration                                 : 1h 39mn
Bit rate mode                            : Constant
Bit rate                                 : 640 Kbps
Channel(s)                               : 6 channels
Channel positions                        : Front: L C R, Side: L R, LFE
Sampling rate                            : 48.0 KHz
Bit depth                                : 16 bits
Compression mode                         : Lossy
Stream size                              : 454 MiB (6%)

Thumbnails: 
http://img196.imageshack.us/img196/5070/abovethelaw19881080pblu.png